<svg id="Layer_1" data-name="madarak" xmlns="http://www.w3.org/2000/svg" xmlns:xlink="http://www.w3.org/1999/xlink" viewBox="0 0 156.92 145.05" style="opacity: 0.3;"><defs><style>.cls-1{fill:none;}.cls-2{clip-path:url(#clip-path);}.cls-3{fill:#ec242d;}.cls-4{fill:#7ccdce;}.cls-5{fill:#e9529c;}.cls-6{fill:#f06441;}.cls-7{fill:#fed56a;}</style><clipPath id="clip-path" transform="translate(-44.22 -56.55)"><rect class="cls-1" width="200" height="200"/></clipPath></defs><title>madarak</title><g class="cls-2"><path class="cls-3" d="M174.22,173.69l-.36.62,3.41,4.69,1.73.17,1.64,5.76-1.32.6c1.45,1.48,2.78,3,4.76,3.84a11.75,11.75,0,0,1,2.47,1.92l6-.84a15.39,15.39,0,0,1-4,6.38l-1.34-1.34-.94.87,2.62,5.24H199.1c1.66-1.69-.91-2.48-.73-4.6a12.6,12.6,0,0,0,1.76-11.23c-1.42-1.09-2.58.31-3.59-.79a3.11,3.11,0,0,0-1.83-1.11,6.13,6.13,0,0,1,.65,0l0,0c.29.08.67,0,1,0,0-.4-.16-.57-.35-.64,1.17-1.81-2.15-3.3-.08-5.44,1.38-.84,3.82,2,5.2-.74v-1.36c-.83-1.14-1.54-2.27,0-3.41v-2.73l-4.69,1.39c.14-3.28-1.59-5.32-4.39-6.62a8.58,8.58,0,0,1-5.64.29c-1.69-.38-3.2-1.56-5-2.49l.55,2.29c-1.44,2.08-3.86,3-6.64,3.28a15.15,15.15,0,0,0,8.65-.25l.19,3.35h4.41c-.66-.88-1.12-1.42-1.5-2a17.86,17.86,0,0,1-.84-1.69l5.58-.91c2,.64.42,3.2,2.13,4.23l-1.62.8.63,1.08-.68.68c-2,1.3-3.51,2.91-3.46,5.55,0,.43-.61.87-.91,1.28h-1.76l.06-.06-.48-.56-.22.22.56.48.06-.06a5.7,5.7,0,0,0,3.19,3.47l-5.66,2-.92-3.83,1.42-.5-.93-2.36h-2.8l-1.25-1.25c2-1.25,4.68-1.18,6.29-3.43-3.1-.34-5.86-2.79-9.14-.83-.7-.76-.61-2.29-2.46-2Z" transform="translate(-44.22 -56.55)"/><path class="cls-4" d="M176.61,193.69c-.13-.18.09-.6.16-1l2,1.69,1.59-2.18h6.32l-3.89,3.5v2.43l3.35,1.79v1.69h-3.41a5,5,0,0,0-2.39-1.35,4.94,4.94,0,0,0-2.39,1.35h-2l-.8-3.63,2.83-2.83A13,13,0,0,1,176.61,193.69Z" transform="translate(-44.22 -56.55)"/><path class="cls-3" d="M192.16,158.39l2.51,2a19.39,19.39,0,0,1,6.48-7.88v1.36c-.28,1.14-1.45,2.27,0,3.41V160c-1.4,1.59-.85,3.18,0,4.78v1.36c-1.4-.71-2.54-1.73-4.21-2.17C194.56,163.32,192.81,161.49,192.16,158.39Z" transform="translate(-44.22 -56.55)"/><path class="cls-4" d="M138.19,193.72l1.26,5.41,1.65-1.62-.07-.07.48-.56.22.22-.56.48-.06-.06-.68,4.09h-4.78a31.64,31.64,0,0,1,.72-4.08A29.15,29.15,0,0,1,138.19,193.72Z" transform="translate(-44.22 -56.55)"/><path class="cls-5" d="M85.15,198.33v3.27h-2l1.67-3.37Z" transform="translate(-44.22 -56.55)"/><path class="cls-5" d="M89.76,199.68l-.52,1.92h-2C87.83,200.6,88.37,199.45,89.76,199.68Z" transform="translate(-44.22 -56.55)"/><path class="cls-5" d="M134.76,185.86l4.15-6.66-2.34-.38,1.5-.57-2.43-2.55a1.81,1.81,0,0,1-2.08-1.16c-.55-1.13-1.56-1.63-2.41-2.36-.1-.08-.08-.31-.13-.56a5,5,0,0,1,1,.08,3.73,3.73,0,0,1,.76.42l.32-.4-1.51-2c-.09-1.44.23-2.87-.28-4.4a23.13,23.13,0,0,1,3.45,3l1.14,3.76,3.85-2v-4.55a1.88,1.88,0,0,0,2.1-1.69l-1.41-1.55a3.72,3.72,0,0,1,2.17.88,3.36,3.36,0,0,0,.84.29l1.24-1.93h7.7l-5,2.51a8.09,8.09,0,0,1-.16,1.29,10.27,10.27,0,0,1-.54,1.27l1.83,1.83,3,1.2c-1,.94-.77,2.63-2.44,2.65l-3.28-4a2.61,2.61,0,0,0-3.25,1.72,8.48,8.48,0,0,1-3.73,3.51c-.59.35-1.21.66-2.05,1.11l4.94,3,3-2.34-.71-2.35c1.54,0,2,1.46,2.61,1.83,2,.35,3.56.75,5.17.89s3.34,0,5,0l.07.61L149.37,178v1.38l2,1.4-1,1h-3.2l-.92-2.57h-5.2l-2.31,4.8c2.77-1.43,2.77-1.43,4.31-1.06-.8.8-1.62,1.6-2.41,2.41s-1.66,1.75-2.35,2.47l3.53,3.76c.43-.39.69-.6.92-.83a1.35,1.35,0,0,0,.38-.52c1-3.76,1-3.76,3.89-6.09l.88.41-.05-.05.48-.56.22.22-.56.48-.06-.06a5.09,5.09,0,0,1-.27,1.91,2.46,2.46,0,0,0,.09,3.12c-.19.59-.33,1.09-.5,1.58s-.36.91-.54,1.34c.76,1.25,2.54,1,3.27,2.27h-6.62l-4.22-4.25-5-2.25c-.7-1.27-1.27-2.28-1.81-3.31,0-.07.2-.28.43-.58Z" transform="translate(-44.22 -56.55)"/><path class="cls-6" d="M162.14,191.82a4.1,4.1,0,0,0-3.45-3.18c-1.08.23-2.11.52-3.16.66a10.66,10.66,0,0,1-6.57-1.36c-.13-.07-.17-.3-.25-.46l.87-.81,1.33.84L152,186v-2.24l2.5-4.88.42,3.07a48.35,48.35,0,0,1,4.43-2.34c1.55-.63,3.22-1,4.83-1.47l3.39-3.39,6.24-.44c-.54,1.56-2.12,1.61-3,2.47l-2,2.26-1.78.15v1.1l2.62.29.92,1.54-2.38,1.2a5.75,5.75,0,0,0-1.1-1.06c-1.6-.89-3.19-1.9-5.09-.57a3.31,3.31,0,0,1-2.06.7c-3-.41-2,3.07-3.77,3.81l.14.31,1.13.9,1.12-.71c.75.48,1,1.73,2.22,1.07-.35-.82-1.2-1.58-.42-2.29l3.87,3.86.56,1.86-.45.63a12.86,12.86,0,0,0,5.93-2l-1.88-3.22-.07.07-.56-.48L168,186l.48.56-.06.06h1.91c.29-3.54.37-3.67,4-6.56l.88.41-.05-.05.48-.56.22.22-.56.48-.06-.06c0,1.34.09,2.69,0,4s-.46,2.64-.63,3.61l2.71,1.91h-4.19l-6.12,4.7a4.55,4.55,0,0,0,2.88,2.48l-1.58,1.2-2-2.27c-3.07.24-3.86-2.16-5.25-3.83Z" transform="translate(-44.22 -56.55)"/><path class="cls-7" d="M131.64,140.89v2h3.19l1.42,2.66a4,4,0,0,1-4.1-1.1c-.95-1.09-2-.65-3.43-1l-3-5.15-6.86,5.62c1.44.75,3.21-.27,3.76,1.48l-.82.82h-2.53l-.81-1.08c-3.36-.72-6,.65-8.57,1.53v3.18c1.83-.32,2.36-2.09,4.14-3l-2.58,8.1,3.93,1.1c-1.67,1.37-1.8,1.54-2.72.91-.67-.46-1.56-.65-1.83-.37-1.09,1.11-2.35.4-3,.55-3.43-.83-3.31-3.91-4.85-5.79l1-.93,1.26,1.26c1.77-1.66,1.88-1.84,2.3-3.87l-1.8-.31,5.43-4.5,3.52-.24-1.24-1.41,2.85.92c.35-2.35,2.83-2.57,4-4.12,1.94-.18,4.06.47,5.51-.89l-.19-1.87c2.11,0,1.59,2.2,2.92,2.69l1.59-1.51,7,1.77C135.61,140.23,133.86,141.2,131.64,140.89Z" transform="translate(-44.22 -56.55)"/><path class="cls-4" d="M99.39,196.53a10.44,10.44,0,0,0,7.09-4.43l5.22-1c-1.15-2.14-3.39-2.55-5-3.25l-1.75-2.63-.07.07-.56-.48.22-.22.48.56-.06.06h1.44c-1.73-2.16-2.17-3.87-1.87-6.9a19.48,19.48,0,0,1,3,3.15,17.2,17.2,0,0,1,1.23,4.07c1.89-1.89,4.39-2,6.38-3.45-1.23-.77-1.71-2.68-3.49-2.37l-4.12-3.83,2.23-.48-1.28-1.28-.93-4.58c2.63,1.06,4.19,2.56,4.21,5.31,0,.5.6,1,1,1.6,1.68-2.37,4.29-2.06,6.47-2.83l-.06-.06.48-.56.22.22-.56.48-.06-.06a1.62,1.62,0,0,1-.72,1.74c-1.61,1.08-3.2,2.18-4.92,3.36l4,2.68-7.28,6.43,4,2.57a10.77,10.77,0,0,0-1.2.9c-.44.44-.76,1.29-1.23,1.37-2.81.47-3.29,3.51-6,4.65,2.81.25,3.3.44,3.46.71l-1.43,2.42-3.31-2.23a7.55,7.55,0,0,0-5.43,1.29c-2.12-.65-3.61,1.95-5.9,1.25C95,198.69,96.75,197,99.39,196.53Z" transform="translate(-44.22 -56.55)"/><path class="cls-4" d="M123,161.35c1.7-1.91,3.63-3.2,6.26-2.7l.5-1.36,1.66,1c.07-2.76,2.74-2.77,3.83-4.33l3.31-.29-2.06-5.22,3.15.76,3.53-6.84v5.43c.83-.59,1.42-1,2-1.43s1.28-.84,2.48-1.63c-1.07,3.2-1.58,5.87-3.53,8.47h4.48l-.08,1.16-6.53.59c-2.71-1.2-4.07.87-5.28,2.8l-2.88,1.42,4.17,1.28-2,2.29-2.78-1.89c-4.65-.93-8.26,1.92-13.11,2.75A23.92,23.92,0,0,0,123,161.35Z" transform="translate(-44.22 -56.55)"/><path class="cls-5" d="M105,131.74v1.83a15.28,15.28,0,0,0,2,1.47,15.47,15.47,0,0,0,2.37.75c-1.05,1.06-.82,2.88-2.68,3.1-.61-1.84-2.26-2.75-3.37-4.12h-1.56l-3.45,3.88c-.25-2.42-1.95-4.91.07-7.14l1.19-.53-.84-2.16,3.31.58.25-1.24,2.5-.74.46.46.78-.6,3.83,1A9.33,9.33,0,0,0,105,131.74Z" transform="translate(-44.22 -56.55)"/><path class="cls-3" d="M74.27,130.6l4,2.56-2.59,2.44a5.9,5.9,0,0,0-4.61-4.31l-3.63,4.11-.92-5.78,2.21-1.43-.88-3.28,2.42,1.82,1.36-2.09h6.58l.1.73L74.27,128Z" transform="translate(-44.22 -56.55)"/><path class="cls-6" d="M170.17,125.12c-1.22,1-1.72,2.49-3.45,2.11l-1.8-3.34h-2.67l-2.49,3.92-.89-.9v-4.75l2.24-2.46L159.53,118c1.41-.85,1.59.86,2.61,1l2-2.77,6.07,1-4.63,3.36C165.63,123.64,168.16,123.76,170.17,125.12Z" transform="translate(-44.22 -56.55)"/><path class="cls-5" d="M103.41,168.19c-2,1.34-3.94.7-5.84-.23-.6-2-3-3.3-2-5.88l2.19,1.65c.73-2.56,3.12-3.87,3.74-6.37v4c1.89,0,2.91-1.18,4.46-2.79l-.06.24.1-.12.22.22-.44.37c-.76,3-1.26,5.33-2.79,7.31l4.77,1.12C105.29,168.95,105.29,168.95,103.41,168.19Z" transform="translate(-44.22 -56.55)"/><path class="cls-4" d="M55.75,112.62l3.12-3.12c2.05-1.11,4.28-.61,6.64-.73l-.19-.11.56-.75-.49-1.77c1.88-.3,1.73,1.29,2.43,2,4.1-.75,4.1-.75,9.71,1a24.91,24.91,0,0,0-2.62,1.71c-1,.84-2.27.54-3.67.82l1.13,1.89H75.6a6.9,6.9,0,0,0,0,1.38,7.9,7.9,0,0,0,.56,1.33H74.6l-6.42-3.21c-1.62-.85-.91-3.24-2.64-4.28l-5.44,4.74-1.56.18v1.08l2.51.23,1.24,1.45-2.57,1.27c-1.74-1.56-3.54-2.58-5.72-2a25.66,25.66,0,0,0-5.53,2.17c-1,.57-1.86.22-3,.49C48,114.35,52.07,113.87,55.75,112.62Z" transform="translate(-44.22 -56.55)"/><path class="cls-5" d="M193,130.62V132h4a7.66,7.66,0,0,0,0,1.55,3.78,3.78,0,0,0,.6,1c-2.33.66-3.84-.58-5.08-1.88h-1.95c-2.57-1.71-2.39-4.87-3.95-7l1.18-1.18,2.19,3.09,1.32-2,7,2.27.43-.5.22.22-.42.36.51.16C196.58,128.81,195.49,131.06,193,130.62Z" transform="translate(-44.22 -56.55)"/><path class="cls-4" d="M168.56,171.5l-3.41-2.62c-2.43.5-2.38-2.69-4.24-3.19,0,0,.11-.58.18-.93l1,.61.34-.31-1.5-2.28a11.71,11.71,0,0,0,0-2.05,13.54,13.54,0,0,0-.85-2.28c3,.67,3.31,3.32,5.09,4.7v2.51c2.2-2.13,5.13-1.88,7.55-3.2-1.43,1.52-2.43,3.36-4.38,4.37-.58.3-1,1-1.44,1.51l3.6,2.28Z" transform="translate(-44.22 -56.55)"/><path class="cls-7" d="M94.65,186.34l-.77-1.4.7-.63a5.45,5.45,0,0,0,.68,1.09,6.45,6.45,0,0,0,1.24.75l4.22-5.53c.59,2.65-.51,4.9-1.33,6.93l-2.47,1.67,2.88,2.88c-1,1.19-2.38.54-3.86.48V190c-3.28-.15-6.63.64-9.53-2.06C89.4,187.9,92.35,188.36,94.65,186.34Z" transform="translate(-44.22 -56.55)"/><path class="cls-6" d="M62.61,101.74c-.73,1.1-2.81.68-2.7,2.81l3.34,1.93-2.11,1a18.48,18.48,0,0,0-2.48-2.07,16.31,16.31,0,0,0-2.89-1.07l-1.92-2.88L55.2,101c-2-1.77-1-4.36-2.43-6.52,3.35.84,3.75,3.64,5.19,5.43l-.73,1.46,8-2.83C64.43,99.85,63.33,100.66,62.61,101.74Z" transform="translate(-44.22 -56.55)"/><path class="cls-4" d="M175.68,163.71a6,6,0,0,0-4.27-3c-1.9-.46-1.59-2.55-3-3.19l.19-.19,1.45-.5-1.49-2-.77-4.43a9.39,9.39,0,0,1,4.95,6.86l7.17-3c-.83,3.08-3.59,3.72-5.76,5.69l3,2.49Z" transform="translate(-44.22 -56.55)"/><path class="cls-7" d="M119.85,133.5a4.91,4.91,0,0,0,3.17,1.94c.1,0,.15.3.3.63l-2,.87a12,12,0,0,0-2.72-2.15c-2.06-.78-3.31-2.41-4.85-3.83l1.42-.71c-.58-1.93-1.93-3.65-1.06-6a7,7,0,0,1,3.92,6.45l7.69-2.74C124.38,130.86,121.48,131.41,119.85,133.5Z" transform="translate(-44.22 -56.55)"/><path class="cls-7" d="M123.47,187.82a9.59,9.59,0,0,0-1.89-2.67c-.09-.1-.07-.31-.1-.46l1.11-.37c-1-2.13-1.37-4.35-2-7,2.31,2.5,4.9,4.07,5,7.31l7.68-2.74c-1.42,2.84-4,3.52-6.25,5.54,1.33,1,2.44,1.82,3.52,2.66.11.09.12.3.21.55h-2.37l-1.65-1.65Z" transform="translate(-44.22 -56.55)"/><path class="cls-7" d="M45.82,81.28l6.05-1.35L51.13,77,54,79l4.47-5.38c.33,3.83-1.32,6.38-3.56,8.71l2.19,2.19c-.89,1.59-2,1.08-3.08,1l-.81-2.63c-1.89,0-3.36-.06-4.82,0a4.74,4.74,0,0,1-3.83-1.42c-.11-.11-.12-.31-.3-.82Z" transform="translate(-44.22 -56.55)"/><path class="cls-5" d="M184.69,124.87l-2.07,1a13.05,13.05,0,0,0-2.67-2c-2-.83-3.27-2.39-4.78-3.85l1.6-.66-1.55-2.91v-2.85l-.06.06-.56-.48.22-.22.4.47v-.07c3.11,1.07,3.46,3.91,4.37,6.24a29.85,29.85,0,0,1,7.9-2.73L181,122.7Z" transform="translate(-44.22 -56.55)"/><path class="cls-5" d="M127.48,193.38l-6.07,2.9,3.59,1.26.8-.75.84,2.71a6.18,6.18,0,0,1-2.29-.05,21.67,21.67,0,0,1-3.07-2h-1.81a11.26,11.26,0,0,1-2.73-8.22l2.22,2.92C122.13,190.77,125.35,191.23,127.48,193.38Z" transform="translate(-44.22 -56.55)"/><path class="cls-4" d="M71.17,80.2l3.42,2.18-.66,1.3a10.32,10.32,0,0,1-2-.82c-.45-.32-.65-1.11-1.11-1.3-2.78-1.14-2.8-1.1-4.41-4.07l1-.2c-1.8-2.34-2.17-3.91-1.39-6.19,2.31,1.56,3.78,3.52,3.69,6.37l7.49-2.66C76,77.67,73.47,78.71,71.17,80.2Z" transform="translate(-44.22 -56.55)"/><path class="cls-6" d="M98.61,142c-1.85,1.91-3,3.42-2.42,5.51l3.87-1.23c-1.55,2.21-2.84,3.63-4.6,4.46-.8,2.06,2.13,2.41,1.95,4.37l-7-3-2.12-4.23,3.17,1.92A25.08,25.08,0,0,1,94,145.45C95.05,144.21,96,142.59,98.61,142Z" transform="translate(-44.22 -56.55)"/><path class="cls-7" d="M67.42,143.52c.06-.46.2-.9.4-1.73l2.75,2.5c1.81,0,3.63-.11,5.42,0a14.14,14.14,0,0,1,3,.94c-2.12,1.24-4.53,1-6.8,1.19v1.71l1.28.86-.82,2.15-3.32-1.1.9-2-1.05-1.05c-1.72,1.52-4.17-.3-5.87,1.38l-2-1.11c2.47,0,4.11-1.44,6.09-2.55A10.44,10.44,0,0,1,67.42,143.52Z" transform="translate(-44.22 -56.55)"/><path class="cls-5" d="M144.77,85.86c-3.1.62-3.83.63-4.36.09q0-1,0-2l-.8-.8c-2.71.9-5.34.24-8,.23,2.81-.59,5.41-1.3,6.53-4l-.48-1.94,3.72,2.74c2.77.09,5.33-.06,7.85.1v1.15l-7.16,1.18Z" transform="translate(-44.22 -56.55)"/><path class="cls-4" d="M100.1,120.1l.87,2.27c-1.46-.75-2.6-1.76-3.83-1.88a4.8,4.8,0,0,1-4.5-3.46c-.16-.43-.37-.85-.6-1.37l2.89.68c1.72-2.74,2.7-5.65,6.1-7.23l.2-.24.22.22-.48.41-2.4,5.28c1.71,0,2.7-1.94,4.47-.79l-5,4.83Z" transform="translate(-44.22 -56.55)"/><path class="cls-6" d="M158.91,131.1l.34-.4.22.22-.28.24-2.4,5,4.56-.85-5.39,5.21,2.92,2-.17,1.75c-1-.62-1.75-1.21-2.61-1.64s-1.81-.6-2.62-1.06a7.34,7.34,0,0,1-2-1.64,19.7,19.7,0,0,1-1.6-2.84,9.63,9.63,0,0,0,1.81,1,4,4,0,0,0,1.21,0C154.72,135.57,155.5,132.55,158.91,131.1Z" transform="translate(-44.22 -56.55)"/><path class="cls-4" d="M91.86,178a7.43,7.43,0,0,0-4-2.38,5.71,5.71,0,0,1-4.17-3.75c-.18-.51-.39-1-.58-1.52,1.06.73,1.78,1.61,3.12,1.16,1-1.4.76-3.41,2.4-4.46,1.33-.86,1.94-2.76,4.17-3A11.73,11.73,0,0,0,90,169.43c1.31.37,2.28-1.62,3.39-.1-.59,2.27-3.21,2.56-4.36,4.49l2.86,2Z" transform="translate(-44.22 -56.55)"/><path class="cls-4" d="M163.68,103.75c-.09.26-.1.66-.31.84-1.16,1-2.37,1.92-3.53,2.91-.21.18-.27.56-.46,1l2.19,1.38v1.63l-6.47-2.78c-.66-1.19-1.14-2-1.57-2.85,0-.1.12-.31.25-.59l2.09,1a18.69,18.69,0,0,1,7.31-8.18c-.82,1.45-1.27,2.22-1.7,3s-.94,1.78-1.53,2.9C161.47,104.19,162.47,102.58,163.68,103.75Z" transform="translate(-44.22 -56.55)"/><path class="cls-7" d="M50.22,66.08l2.22,1.64-.18,1.38-6.36-2.7c-.56-1-1.08-1.93-1.55-2.86,0-.09.14-.3.28-.57l2,.92c2-2.66,2.63-6.42,6.61-7.35l-2.55,5.31,3.78-1C53.63,63.36,51.1,63.87,50.22,66.08Z" transform="translate(-44.22 -56.55)"/><path class="cls-3" d="M116.35,169.57c-2.16,1.41-3.87.48-5.66-.73a14.63,14.63,0,0,0-2.36-1.06l.85-.7,2.28.43c1-2.64,1-5.37,3-7.63l1,4.83.73,0,.65-1.38.39,0-.09-.09.48-.56.22.22-.52.44h.11l-.87,3.9h1.84l2,2.27-1.63-.69A7.87,7.87,0,0,0,116.35,169.57Z" transform="translate(-44.22 -56.55)"/><path class="cls-7" d="M79.27,140.75c-.24-.29-.18-.82-.26-1.24,1.34.05,2.11-.49,2-1.93a4.34,4.34,0,0,1,1.57-3.4c.73-.7,1.43-1.43,2.13-2.12l1.06.61,0,0,.48-.56.22.22-.56.48-.06-.06c-.23,1.35-.51,2.69-.66,4s.26,2.73-.47,3.92c.69,1.29,2.48,1,3.18,2.26H81.35C80.67,142.23,79.91,141.54,79.27,140.75Z" transform="translate(-44.22 -56.55)"/><path class="cls-7" d="M128,177.15c-1.78,1.24-3.15.18-4.61-.18a10.27,10.27,0,0,1-2.72-1.66l3.34-1v-2.43l1.72-4.42,1,.2c0,.86,0,1.65,0,2.43s.09,1.47.19,2.87l2.16-2.73.43.19-1.49,4.47h2.45l-.44.56,1.6,1.6C130.66,177,129,176.52,128,177.15Z" transform="translate(-44.22 -56.55)"/><path class="cls-5" d="M150.7,197.8l2.68.45v-2.78l2.63-5.22,1.06,5.17,1.91-1.63.27-.31.22.22L159,194c-.37,1.31-.65,2.23-.87,3.16a2.62,2.62,0,0,0,.14.93l2.38.12-.41.5,2.06,1-.33.5-2-.78c-.22.17-.46.54-.71.54-2.12,0-4.23,0-6,0l-3.35-1.6Z" transform="translate(-44.22 -56.55)"/><path class="cls-4" d="M148.17,130.7c-2.25,1-4.55.43-6.55.62l-2.67-2c1-1.93,1.66.65,2.52-.06,1.05-2.37.91-5.26,2.81-7.35.9,1.29.9,1.29.94,3.67l1,1,.64-1.39.47.06-.88,4.24,2.66-.66c.42.59,1.61,1,1.52,2.32C149.71,130.95,148.76,130.43,148.17,130.7Z" transform="translate(-44.22 -56.55)"/><path class="cls-4" d="M71.49,194.85v-2.77l2.64-5.24,1.12,5.39,1.69-2.64c-.13,1.48.41,2.49-.57,3.49-.27.27,0,1,0,1.64l1.86.09,2.25,1.63-.36.38c-.81-.22-1.83-.87-2.38-.59-2.16,1.09-4.38.32-6,.57l-3.53-1.73.68-.68Z" transform="translate(-44.22 -56.55)"/><path class="cls-7" d="M151.86,160.39c-1.13-.24-2.42-.14-3.1-.74a7.22,7.22,0,0,0-3-1.28l.92-.84,2.55.47c0-2.95,1.21-5.25,2.61-7.67l1.16,4.84,1.61-1.38c.71,1.5-.33,2.3-1.1,3,.62,1.74,2.19.81,3.24,1.3l-.47.51,1.35,1.35-1.44-.64a16.8,16.8,0,0,1-2,.64C153.3,160.12,152.3,159.67,151.86,160.39Z" transform="translate(-44.22 -56.55)"/><path class="cls-5" d="M195.81,144l4.64-3h-7.34l-1.28,2-2.8-1.4c-.63,1.26.82,1.55,1.19,2.47l-2,1.24v5.25c-1.69,2.21-4.72,3.62-4.07,7.33h-2.7l3.38,3.37,1.69.58,3.84-.74-2.07-1.31.83-8.16,3.22-3.9c3.21.07,3.48,2.94,5,4.88l2.31-3.06-4.56-3.16Z" transform="translate(-44.22 -56.55)"/><path class="cls-5" d="M191.59,162c-.07-1-.85-.56-1.36-.66.06,1,.83.59,1.35.68l-.32.34,1.61,1,.09-1.3-1.35-.1Z" transform="translate(-44.22 -56.55)"/><path class="cls-7" d="M186.15,126.91c-4.36-.81-7.35.37-9.11,3.66l-2.29.12-.37,1c-3.6-.39-5.5,2.47-7.89,4.26l3,.25-1.79,1v3.71H164.9l1.9,2.6,3,1.52c1.12-1.2,2.64-.58,4.46-.83l-2.39-1.38V137l2-2.89h5.21l.64,1.08c1.7.39,2.64.14,3-1.45l-3.38-1.29Z" transform="translate(-44.22 -56.55)"/><path class="cls-7" d="M173.85,144.29c.06,1,.85.58,1.36.68C175.16,143.95,174.37,144.39,173.85,144.29Z" transform="translate(-44.22 -56.55)"/><path class="cls-7" d="M175.2,145.5l1.3.11.06-.44-1.33-.26Z" transform="translate(-44.22 -56.55)"/><path class="cls-6" d="M161.68,152.93c1.51-2.16-.42-4.94,1.26-7.15l-.88-2c-.14,0-.35.05-.44.16-1.11,1.36-2.19,2.73-3.48,4.35v2.88h-2.79l1.94,2.66a10.65,10.65,0,0,0,3.23,1.31c1.2.13,2.48-.52,4-.89Z" transform="translate(-44.22 -56.55)"/><path class="cls-6" d="M165.68,155.14l0,.59,1.3.11.06-.44Z" transform="translate(-44.22 -56.55)"/><path class="cls-6" d="M164.3,154.52c.06,1,.85.58,1.36.68C165.6,154.18,164.82,154.62,164.3,154.52Z" transform="translate(-44.22 -56.55)"/><path class="cls-7" d="M159,172.82l1-8.71-.88.6-.65-.65a14.87,14.87,0,0,0-2.33,2.56,20.85,20.85,0,0,0-1.2,4c-.32.85-1.9-.13-3,.45a7.07,7.07,0,0,1,1.38,1.12c2,2.79,2.59,3,6.17,2.08a9.75,9.75,0,0,1,1.85,0Z" transform="translate(-44.22 -56.55)"/><path class="cls-7" d="M162.26,175h0c-.07-1-.85-.57-1.36-.67.06,1,.83.59,1.35.68l-.32.34,1.61,1,.09-1.3Z" transform="translate(-44.22 -56.55)"/></g></svg>
